<svg id="Layer_1" data-name="Layer 1" xmlns="http://www.w3.org/2000/svg" viewBox="0 0 2017 4017"><defs><style>.cls-1{fill:#b8cddd;stroke-width:17px;opacity:0.82;}.cls-1,.cls-15{stroke:#4b4be8;}.cls-1,.cls-15,.cls-30{stroke-miterlimit:10;}.cls-2{fill:#06066d;}.cls-3{fill:#d30707;}.cls-4{font-size:57px;}.cls-14,.cls-16,.cls-31,.cls-32,.cls-34,.cls-35,.cls-4{font-family:MyriadPro-Regular, Myriad Pro;}.cls-5{letter-spacing:0.01em;}.cls-6{letter-spacing:-0.01em;}.cls-7{letter-spacing:-0.01em;}.cls-8{letter-spacing:0em;}.cls-9{letter-spacing:0.01em;}.cls-10,.cls-11,.cls-12,.cls-13{fill:#c40a0a;}.cls-10{letter-spacing:-0.02em;}.cls-11{letter-spacing:-0.01em;}.cls-13{letter-spacing:0em;}.cls-14,.cls-32{font-size:64px;}.cls-14{fill:#e80319;}.cls-15{fill:none;stroke-width:4px;}.cls-16{font-size:46px;}.cls-17{letter-spacing:0em;}.cls-18{letter-spacing:-0.01em;}.cls-19{letter-spacing:-0.01em;}.cls-20{letter-spacing:-0.01em;}.cls-21{letter-spacing:-0.05em;}.cls-22{fill:#0707a0;}.cls-23{letter-spacing:-0.08em;}.cls-24{letter-spacing:0em;}.cls-25{letter-spacing:-0.01em;}.cls-26{letter-spacing:-0.01em;}.cls-27{letter-spacing:0em;}.cls-28{letter-spacing:-0.01em;}.cls-29,.cls-30{fill:#ea0707;}.cls-30{stroke:#312783;stroke-width:2px;}.cls-31,.cls-34{font-size:52.39px;}.cls-33{letter-spacing:0em;}.cls-34{fill:#e20707;}.cls-35{font-size:71px;fill:#db0707;}</style></defs><rect class="cls-1" x="8.5" y="8.5" width="2000" height="4000"/><path class="cls-2" d="M211.3,233.16l-26.4-80.88h11.28l12.6,39.84c3.48,10.92,6.48,20.76,8.64,30.24h.24c2.28-9.36,5.64-19.56,9.24-30.12l13.68-40h11.16l-28.92,80.88Z" transform="translate(8.5 8.5)"/><path class="cls-2" d="M302.38,195.24H270.94V224.4h35v8.76H260.5V152.28h43.68V161H270.94V186.6h31.44Z" transform="translate(8.5 8.5)"/><path class="cls-2" d="M319.54,153.36a108.74,108.74,0,0,1,20-1.68c11.16,0,18.36,2,23.4,6.6,4.08,3.6,6.36,9.12,6.36,15.36,0,10.68-6.72,17.76-15.24,20.64v.36c6.24,2.16,10,7.92,11.88,16.32,2.64,11.28,4.56,19.08,6.24,22.2h-10.8c-1.32-2.28-3.12-9.24-5.4-19.32-2.4-11.16-6.72-15.36-16.2-15.72H330v35H319.54ZM330,190.2h10.68c11.16,0,18.24-6.12,18.24-15.36,0-10.44-7.56-15-18.6-15.12a43,43,0,0,0-10.32,1Z" transform="translate(8.5 8.5)"/><path class="cls-2" d="M383.5,140.52a6.1,6.1,0,0,1,6-6,6,6,0,0,1,5.76,6,5.88,5.88,0,1,1-11.76,0Zm11,11.76v80.88H384.1V152.28Z" transform="translate(8.5 8.5)"/><path class="cls-2" d="M450.7,233.16V198.84l-25.56-46.56H437l11.4,22.32c3.12,6.12,5.52,11,8,16.68h.24c2.28-5.28,5-10.56,8.16-16.68l11.64-22.32h11.88l-27.12,46.44v34.44Z" transform="translate(8.5 8.5)"/><path class="cls-2" d="M501,207.72l-8.4,25.44h-10.8l27.48-80.88h12.6l27.6,80.88H538.3l-8.64-25.44Zm26.52-8.16-7.92-23.28c-1.8-5.28-3-10.08-4.2-14.76h-.24c-1.2,4.8-2.52,9.72-4.08,14.64l-7.92,23.4Z" transform="translate(8.5 8.5)"/><path class="cls-2" d="M561.34,153.24a121,121,0,0,1,20-1.56c10.32,0,17.88,2.4,22.68,6.72,4.44,3.84,7.08,9.72,7.08,16.92S609,188.4,604.9,192.6c-5.52,5.88-14.52,8.88-24.72,8.88a35.93,35.93,0,0,1-8.4-.72v32.4H561.34Zm10.44,39a35,35,0,0,0,8.64.84c12.6,0,20.28-6.12,20.28-17.28,0-10.68-7.56-15.84-19.08-15.84a43.81,43.81,0,0,0-9.84.84Z" transform="translate(8.5 8.5)"/><path class="cls-2" d="M635.62,152.28v80.88H625.18V152.28Z" transform="translate(8.5 8.5)"/><path class="cls-2" d="M653.86,152.28H664.3V224.4h34.56v8.76h-45Z" transform="translate(8.5 8.5)"/><path class="cls-2" d="M723.58,207.72l-8.4,25.44h-10.8l27.47-80.88h12.6l27.6,80.88H760.89l-8.64-25.44Zm26.51-8.16-7.92-23.28c-1.79-5.28-3-10.08-4.19-14.76h-.25c-1.19,4.8-2.51,9.72-4.07,14.64l-7.92,23.4Z" transform="translate(8.5 8.5)"/><path class="cls-2" d="M783.94,153.36a108.66,108.66,0,0,1,20-1.68c11.15,0,18.35,2,23.39,6.6,4.08,3.6,6.36,9.12,6.36,15.36,0,10.68-6.72,17.76-15.24,20.64v.36c6.24,2.16,10,7.92,11.88,16.32,2.64,11.28,4.56,19.08,6.24,22.2h-10.8c-1.32-2.28-3.12-9.24-5.4-19.32-2.4-11.16-6.72-15.36-16.2-15.72h-9.83v35H783.94Zm10.44,36.84h10.67c11.16,0,18.24-6.12,18.24-15.36,0-10.44-7.56-15-18.6-15.12a42.85,42.85,0,0,0-10.31,1Z" transform="translate(8.5 8.5)"/><path class="cls-2" d="M858.94,152.28v80.88H848.5V152.28Z" transform="translate(8.5 8.5)"/><path class="cls-2" d="M916.05,233.16l-26.4-80.88h11.28l12.6,39.84C917,203,920,212.88,922.17,222.36h.24c2.28-9.36,5.64-19.56,9.24-30.12l13.68-40h11.16l-28.92,80.88Z" transform="translate(8.5 8.5)"/><path class="cls-2" d="M1007.13,195.24H975.69V224.4h35v8.76H965.25V152.28h43.68V161H975.69V186.6h31.44Z" transform="translate(8.5 8.5)"/><path class="cls-2" d="M1062.81,207.72l-8.4,25.44h-10.8l27.48-80.88h12.6l27.6,80.88h-11.16l-8.64-25.44Zm26.52-8.16-7.92-23.28c-1.8-5.28-3-10.08-4.2-14.76H1077c-1.2,4.8-2.52,9.72-4.08,14.64l-7.92,23.4Z" transform="translate(8.5 8.5)"/><path class="cls-2" d="M1123.17,152.28h10.44V224.4h34.56v8.76h-45Z" transform="translate(8.5 8.5)"/><path class="cls-2" d="M1236.69,229.56a75.35,75.35,0,0,1-24.84,4.44c-12.24,0-22.32-3.12-30.24-10.68-7-6.72-11.28-17.52-11.28-30.12.12-24.12,16.68-41.76,43.8-41.76,9.36,0,16.68,2,20.16,3.72l-2.52,8.52a41.92,41.92,0,0,0-17.88-3.48c-19.68,0-32.52,12.24-32.52,32.52,0,20.52,12.36,32.64,31.2,32.64,6.84,0,11.52-1,13.92-2.16V199.08h-16.44v-8.4h26.64Z" transform="translate(8.5 8.5)"/><path class="cls-2" d="M1321.77,191.88c0,27.84-16.92,42.6-37.56,42.6-21.36,0-36.36-16.56-36.36-41,0-25.68,16-42.48,37.56-42.48C1307.49,151,1321.77,167.88,1321.77,191.88ZM1259,193.2c0,17.28,9.36,32.76,25.8,32.76s25.92-15.24,25.92-33.6c0-16.08-8.4-32.88-25.8-32.88S1259,175.44,1259,193.2Z" transform="translate(8.5 8.5)"/><path class="cls-2" d="M1335.33,153.36a108.74,108.74,0,0,1,20-1.68c11.16,0,18.36,2,23.4,6.6,4.08,3.6,6.36,9.12,6.36,15.36,0,10.68-6.72,17.76-15.24,20.64v.36c6.24,2.16,10,7.92,11.88,16.32,2.64,11.28,4.56,19.08,6.24,22.2h-10.8c-1.32-2.28-3.12-9.24-5.4-19.32-2.4-11.16-6.72-15.36-16.2-15.72h-9.84v35h-10.44Zm10.44,36.84h10.68c11.16,0,18.24-6.12,18.24-15.36,0-10.44-7.56-15-18.6-15.12a43,43,0,0,0-10.32,1Z" transform="translate(8.5 8.5)"/><path class="cls-2" d="M1399.29,140.52a6.1,6.1,0,0,1,6-6,6,6,0,0,1,5.76,6,5.88,5.88,0,1,1-11.76,0Zm11,11.76v80.88h-10.44V152.28Z" transform="translate(8.5 8.5)"/><path class="cls-2" d="M1443.93,161.16h-24.6v-8.88h59.88v8.88h-24.72v72h-10.56Z" transform="translate(8.5 8.5)"/><path class="cls-2" d="M1556.37,197.64c-.6-11.28-1.32-24.84-1.2-34.92h-.36c-2.76,9.48-6.12,19.56-10.2,30.72l-14.28,39.24h-7.92l-13.08-38.52c-3.84-11.4-7.08-21.84-9.36-31.44h-.24c-.24,10.08-.84,23.64-1.56,35.76L1496,233.16h-10l5.64-80.88H1505l13.8,39.12c3.36,10,6.12,18.84,8.16,27.24h.36c2-8.16,4.92-17,8.52-27.24l14.4-39.12h13.32l5,80.88h-10.2Z" transform="translate(8.5 8.5)"/><path class="cls-2" d="M1596.57,207.72l-8.4,25.44h-10.8l27.48-80.88h12.6l27.6,80.88h-11.16l-8.64-25.44Zm26.52-8.16-7.92-23.28c-1.8-5.28-3-10.08-4.2-14.76h-.24c-1.2,4.8-2.52,9.72-4.08,14.64l-7.92,23.4Z" transform="translate(8.5 8.5)"/><path class="cls-2" d="M1656.93,152.28h10.44V224.4h34.56v8.76h-45Z" transform="translate(8.5 8.5)"/><path class="cls-2" d="M1726.65,207.72l-8.4,25.44h-10.8l27.48-80.88h12.6l27.59,80.88H1764l-8.63-25.44Zm26.52-8.16-7.92-23.28c-1.8-5.28-3-10.08-4.2-14.76h-.24c-1.2,4.8-2.52,9.72-4.08,14.64l-7.92,23.4Z" transform="translate(8.5 8.5)"/><path class="cls-2" d="M1787,153.36a108.74,108.74,0,0,1,20-1.68c11.16,0,18.35,2,23.39,6.6,4.08,3.6,6.36,9.12,6.36,15.36,0,10.68-6.72,17.76-15.24,20.64v.36c6.24,2.16,10,7.92,11.88,16.32,2.64,11.28,4.56,19.08,6.24,22.2h-10.8c-1.32-2.28-3.12-9.24-5.4-19.32-2.4-11.16-6.71-15.36-16.19-15.72h-9.84v35H1787Zm10.44,36.84h10.67c11.17,0,18.25-6.12,18.25-15.36,0-10.44-7.57-15-18.6-15.12a43,43,0,0,0-10.32,1Z" transform="translate(8.5 8.5)"/><path d="M125.43,310.49a85.65,85.65,0,0,1,14.13-1.1c7.28,0,12.61,1.69,16,4.74,3.13,2.7,5,6.85,5,11.92s-1.52,9.22-4.4,12.18c-3.89,4.15-10.23,6.26-17.42,6.26a25.63,25.63,0,0,1-5.93-.5v22.84h-7.36ZM132.79,338a24.86,24.86,0,0,0,6.09.59c8.89,0,14.3-4.31,14.3-12.18,0-7.53-5.33-11.16-13.45-11.16a30.89,30.89,0,0,0-6.94.59Z" transform="translate(8.5 8.5)"/><path d="M170.44,310.57a76.75,76.75,0,0,1,14.12-1.18c7.87,0,12.95,1.44,16.5,4.65a14.19,14.19,0,0,1,4.48,10.83c0,7.53-4.73,12.52-10.74,14.55v.25c4.4,1.53,7,5.59,8.37,11.51,1.87,7.95,3.22,13.45,4.4,15.65H200c-.93-1.61-2.2-6.52-3.81-13.62-1.69-7.87-4.73-10.83-11.42-11.08H177.8v24.7h-7.36Zm7.36,26h7.52c7.87,0,12.86-4.31,12.86-10.82,0-7.36-5.33-10.58-13.11-10.66a30.24,30.24,0,0,0-7.27.67Z" transform="translate(8.5 8.5)"/><path d="M264.92,337.73c0,19.62-11.92,30-26.47,30-15.06,0-25.64-11.68-25.64-28.93,0-18.11,11.26-29.95,26.48-29.95C254.86,308.88,264.92,320.81,264.92,337.73Zm-44.24.93c0,12.18,6.6,23.09,18.19,23.09s18.27-10.74,18.27-23.68c0-11.34-5.92-23.18-18.19-23.18S220.68,326.14,220.68,338.66Z" transform="translate(8.5 8.5)"/><path d="M286.15,309.81h7.36V348c0,15.15-7.44,19.8-17.25,19.8a23.6,23.6,0,0,1-7.87-1.36l1.1-6a17.59,17.59,0,0,0,6.18,1.1c6.59,0,10.48-3,10.48-14.13Z" transform="translate(8.5 8.5)"/><path d="M335.3,340.1H313.14v20.55h24.7v6.18H305.78v-57h30.79V316H313.14v18H335.3Z" transform="translate(8.5 8.5)"/><path d="M378.86,318.78h-.17l-9.55,5.16-1.44-5.67,12-6.43h6.34v55h-7.19Z" transform="translate(8.5 8.5)"/><path class="cls-3" d="M773.46,469.47V419.26H785v3.46h-7.25V466H785v3.47Z" transform="translate(8.5 8.5)"/><path class="cls-3" d="M789,462.41V459l4.35-4.22c10.46-10,15.18-15.25,15.24-21.42,0-4.16-2-8-8.12-8a14,14,0,0,0-8.7,3.46l-1.76-3.9a17.91,17.91,0,0,1,11.59-4.16c8.82,0,12.54,6.05,12.54,11.91,0,7.56-5.48,13.67-14.12,22l-3.27,3v.12h18.4v4.6Z" transform="translate(8.5 8.5)"/><path class="cls-3" d="M821.34,462.41V459l4.34-4.22c10.46-10,15.19-15.25,15.25-21.42,0-4.16-2-8-8.13-8a14,14,0,0,0-8.69,3.46l-1.76-3.9a17.91,17.91,0,0,1,11.59-4.16c8.82,0,12.54,6.05,12.54,11.91,0,7.56-5.49,13.67-14.12,22l-3.27,3v.12h18.39v4.6Z" transform="translate(8.5 8.5)"/><path class="cls-3" d="M851.83,470.16a90.78,90.78,0,0,0,3.78-15.06l6.17-.63a77,77,0,0,1-6,15.31Z" transform="translate(8.5 8.5)"/><path class="cls-3" d="M866.69,462.41V459l4.35-4.22c10.46-10,15.19-15.25,15.25-21.42,0-4.16-2-8-8.13-8a14,14,0,0,0-8.69,3.46l-1.77-3.9a18,18,0,0,1,11.6-4.16c8.82,0,12.53,6.05,12.53,11.91,0,7.56-5.48,13.67-14.11,22l-3.28,3v.12h18.4v4.6Z" transform="translate(8.5 8.5)"/><path class="cls-3" d="M925.6,421.46v3.65l-17.83,37.3H902l17.76-36.22v-.13h-20v-4.6Z" transform="translate(8.5 8.5)"/><path class="cls-3" d="M929.5,470.16a89.8,89.8,0,0,0,3.78-15.06l6.18-.63a76.35,76.35,0,0,1-6,15.31Z" transform="translate(8.5 8.5)"/><path class="cls-3" d="M956.4,426.63h-.12l-7.12,3.84-1.07-4.22,8.94-4.79h4.73v41H956.4Z" transform="translate(8.5 8.5)"/><path class="cls-3" d="M1000.06,425.37a19.71,19.71,0,0,0-4.16.25,16.63,16.63,0,0,0-14.23,14.55h.19a12.2,12.2,0,0,1,9.89-4.72c7.24,0,12.35,5.23,12.35,13.23,0,7.5-5.11,14.43-13.61,14.43-8.76,0-14.49-6.81-14.49-17.46,0-8.06,2.89-14.42,6.93-18.46a22.31,22.31,0,0,1,13.1-6,25.69,25.69,0,0,1,4-.32ZM998.49,449c0-5.86-3.34-9.38-8.44-9.38a9.12,9.12,0,0,0-7.94,5,4.69,4.69,0,0,0-.63,2.45c.12,6.74,3.21,11.72,9,11.72C995.27,458.82,998.49,454.85,998.49,449Z" transform="translate(8.5 8.5)"/><path class="cls-3" d="M1007.18,470.16A89.8,89.8,0,0,0,1011,455.1l6.17-.63a76.39,76.39,0,0,1-6,15.31Z" transform="translate(8.5 8.5)"/><path class="cls-3" d="M1022.05,462.41V459l4.34-4.22c10.46-10,15.19-15.25,15.25-21.42,0-4.16-2-8-8.13-8a14,14,0,0,0-8.69,3.46l-1.77-3.9a18,18,0,0,1,11.6-4.16c8.82,0,12.54,6.05,12.54,11.91,0,7.56-5.49,13.67-14.12,22l-3.27,3v.12h18.39v4.6Z" transform="translate(8.5 8.5)"/><path class="cls-3" d="M1052.54,470.16a91.78,91.78,0,0,0,3.78-15.06l6.17-.63a77,77,0,0,1-6,15.31Z" transform="translate(8.5 8.5)"/><path class="cls-3" d="M1079.44,426.63h-.13l-7.12,3.84-1.07-4.22,9-4.79h4.72v41h-5.35Z" transform="translate(8.5 8.5)"/><path class="cls-3" d="M1099.22,452c0-5.17,3.09-8.82,8.13-11l-.07-.18c-4.53-2.15-6.49-5.67-6.49-9.2,0-6.49,5.48-10.9,12.67-10.9,7.94,0,11.9,5,11.9,10.08,0,3.46-1.7,7.18-6.74,9.58v.18c5.11,2,8.26,5.61,8.26,10.59,0,7.12-6.11,11.91-13.93,11.91C1104.38,463.11,1099.22,458,1099.22,452Zm22-.25c0-5-3.47-7.38-9-8.95-4.79,1.39-7.37,4.54-7.37,8.44-.19,4.16,3,7.81,8.19,7.81C1118.06,459.07,1121.27,456,1121.27,451.77ZM1106,431.29c0,4.1,3.09,6.3,7.81,7.56,3.53-1.2,6.24-3.72,6.24-7.43,0-3.28-2-6.68-6.93-6.68C1108.54,424.74,1106,427.76,1106,431.29Z" transform="translate(8.5 8.5)"/><path class="cls-3" d="M1130.21,470.16A89.8,89.8,0,0,0,1134,455.1l6.18-.63a76.35,76.35,0,0,1-6,15.31Z" transform="translate(8.5 8.5)"/><path class="cls-3" d="M1168.45,425.37a19.59,19.59,0,0,0-4.15.25,16.63,16.63,0,0,0-14.24,14.55h.19a12.2,12.2,0,0,1,9.89-4.72c7.24,0,12.35,5.23,12.35,13.23,0,7.5-5.11,14.43-13.61,14.43-8.76,0-14.49-6.81-14.49-17.46,0-8.06,2.9-14.42,6.93-18.46a22.34,22.34,0,0,1,13.1-6,25.78,25.78,0,0,1,4-.32ZM1166.88,449c0-5.86-3.34-9.38-8.44-9.38a9.12,9.12,0,0,0-7.94,5,4.69,4.69,0,0,0-.63,2.45c.12,6.74,3.21,11.72,9,11.72C1163.67,458.82,1166.88,454.85,1166.88,449Z" transform="translate(8.5 8.5)"/><path class="cls-3" d="M1187.29,419.19v50.28h-11.53V466H1183V422.66h-7.25v-3.47Z" transform="translate(8.5 8.5)"/><text class="cls-4" transform="translate(257.76 612.84)"><tspan class="cls-5">S</tspan><tspan x="28.44" y="0">oru A:</tspan></text><text class="cls-4" transform="translate(988.87 608.86)"><tspan class="cls-5">S</tspan><tspan x="28.44" y="0">oru B:</tspan></text><text class="cls-4" transform="translate(344.63 885.44)"><tspan class="cls-5">S</tspan><tspan x="28.44" y="0">oru C: </tspan><tspan x="0" y="68.4">18 s</tspan><tspan class="cls-6" x="93.14" y="68.4">a</tspan><tspan x="120.15" y="68.4">yısının time </tspan><tspan class="cls-7" x="405.32" y="68.4">c</tspan><tspan x="430.51" y="68.4">ompl</tspan><tspan class="cls-8" x="555.23" y="68.4">e</tspan><tspan x="583.61" y="68.4">xi</tspan><tspan class="cls-9" x="623.34" y="68.4">t</tspan><tspan x="642.72" y="68.4">y= </tspan><tspan class="cls-10" x="715.62" y="68.4">A</tspan><tspan class="cls-11" x="749.31" y="68.4">v</tspan><tspan class="cls-12" x="776.16" y="68.4">e</tspan><tspan class="cls-13" x="804.71" y="68.4">r</tspan><tspan class="cls-12" x="823.07" y="68.4">age case</tspan></text><path d="M459.73,609.25V571h8.79v2.64H463v33h5.52v2.65Z" transform="translate(8.5 8.5)"/><path d="M471.59,603.87v-2.59l3.31-3.22c8-7.58,11.57-11.62,11.62-16.32,0-3.17-1.54-6.1-6.2-6.1a10.62,10.62,0,0,0-6.62,2.64l-1.34-3a13.65,13.65,0,0,1,8.83-3.17c6.72,0,9.55,4.61,9.55,9.07,0,5.76-4.18,10.42-10.75,16.75l-2.5,2.31v.09h14v3.51Z" transform="translate(8.5 8.5)"/><path d="M494.82,609.77a69.89,69.89,0,0,0,2.88-11.47l4.7-.48a58.08,58.08,0,0,1-4.56,11.67Z" transform="translate(8.5 8.5)"/><path d="M506.15,603.87v-2.59l3.31-3.22c8-7.58,11.57-11.62,11.62-16.32,0-3.17-1.54-6.1-6.2-6.1a10.62,10.62,0,0,0-6.62,2.64l-1.35-3a13.68,13.68,0,0,1,8.84-3.17c6.72,0,9.55,4.61,9.55,9.07,0,5.76-4.18,10.42-10.75,16.75l-2.5,2.31v.09h14v3.51Z" transform="translate(8.5 8.5)"/><path d="M551,572.67v2.78l-13.59,28.42h-4.37l13.54-27.6v-.1H531.35v-3.5Z" transform="translate(8.5 8.5)"/><path d="M554,609.77a68.89,68.89,0,0,0,2.88-11.47l4.7-.48A58.08,58.08,0,0,1,557,609.49Z" transform="translate(8.5 8.5)"/><path d="M574.5,576.6h-.1L569,579.53l-.82-3.22,6.82-3.64h3.6v31.2H574.5Z" transform="translate(8.5 8.5)"/><path d="M607.76,575.64a15.27,15.27,0,0,0-3.17.19,12.7,12.7,0,0,0-10.85,11.09h.15a9.32,9.32,0,0,1,7.53-3.6c5.52,0,9.41,4,9.41,10.08,0,5.72-3.89,11-10.37,11-6.67,0-11-5.19-11-13.3,0-6.14,2.21-11,5.28-14.07a17,17,0,0,1,10-4.6,19.26,19.26,0,0,1,3.07-.24Zm-1.2,18c0-4.46-2.54-7.15-6.43-7.15a7,7,0,0,0-6,3.84,3.59,3.59,0,0,0-.48,1.87c.09,5.14,2.45,8.93,6.86,8.93C604.11,601.13,606.56,598.11,606.56,593.64Z" transform="translate(8.5 8.5)"/><path d="M613.18,609.77a68.89,68.89,0,0,0,2.88-11.47l4.71-.48a59.3,59.3,0,0,1-4.56,11.67Z" transform="translate(8.5 8.5)"/><path d="M624.51,603.87v-2.59l3.31-3.22c8-7.58,11.57-11.62,11.62-16.32,0-3.17-1.54-6.1-6.19-6.1a10.62,10.62,0,0,0-6.63,2.64l-1.34-3a13.65,13.65,0,0,1,8.83-3.17c6.72,0,9.55,4.61,9.55,9.07,0,5.76-4.17,10.42-10.75,16.75l-2.5,2.31v.09h14v3.51Z" transform="translate(8.5 8.5)"/><path d="M649.13,603.87v-2.59l3.31-3.22c8-7.58,11.57-11.62,11.62-16.32,0-3.17-1.53-6.1-6.19-6.1a10.65,10.65,0,0,0-6.63,2.64l-1.34-3a13.65,13.65,0,0,1,8.83-3.17c6.72,0,9.56,4.61,9.56,9.07,0,5.76-4.18,10.42-10.76,16.75L655,600.27v.09h14v3.51Z" transform="translate(8.5 8.5)"/><path d="M672.36,609.77a67.92,67.92,0,0,0,2.88-11.47l4.71-.48a59.3,59.3,0,0,1-4.56,11.67Z" transform="translate(8.5 8.5)"/><path d="M692.86,576.6h-.1l-5.42,2.93-.82-3.22,6.82-3.64h3.6v31.2h-4.08Z" transform="translate(8.5 8.5)"/><path d="M707.93,596c0-3.94,2.35-6.72,6.19-8.35l0-.15c-3.45-1.63-4.94-4.32-4.94-7,0-4.94,4.18-8.3,9.65-8.3,6.05,0,9.07,3.79,9.07,7.68,0,2.64-1.29,5.47-5.13,7.3v.14c3.88,1.54,6.28,4.27,6.28,8.06,0,5.43-4.65,9.08-10.6,9.08C711.87,604.4,707.93,600.51,707.93,596Zm16.8-.19c0-3.8-2.64-5.62-6.86-6.82-3.65,1.06-5.62,3.46-5.62,6.43-.14,3.17,2.26,6,6.24,6C722.28,601.32,724.73,599,724.73,595.76Zm-11.62-15.61c0,3.12,2.36,4.81,6,5.77,2.69-.92,4.75-2.84,4.75-5.67,0-2.5-1.49-5.09-5.28-5.09C715,575.16,713.11,577.47,713.11,580.15Z" transform="translate(8.5 8.5)"/><path d="M731.55,609.77a69.89,69.89,0,0,0,2.88-11.47l4.7-.48a58.69,58.69,0,0,1-4.56,11.67Z" transform="translate(8.5 8.5)"/><path d="M760.68,575.64a15.27,15.27,0,0,0-3.17.19,12.68,12.68,0,0,0-10.84,11.09h.14a9.33,9.33,0,0,1,7.54-3.6c5.52,0,9.4,4,9.4,10.08,0,5.72-3.88,11-10.36,11-6.68,0-11-5.19-11-13.3,0-6.14,2.21-11,5.29-14.07a17,17,0,0,1,10-4.6,19.26,19.26,0,0,1,3.07-.24Zm-1.2,18c0-4.46-2.54-7.15-6.43-7.15a7,7,0,0,0-6,3.84,3.59,3.59,0,0,0-.48,1.87c.1,5.14,2.45,8.93,6.87,8.93C757,601.13,759.48,598.11,759.48,593.64Z" transform="translate(8.5 8.5)"/><path d="M775,570.94v38.31h-8.78V606.6h5.52v-33h-5.52v-2.64Z" transform="translate(8.5 8.5)"/><path d="M459.73,666.85V628.59h8.79v2.64H463v33h5.52v2.64Z" transform="translate(8.5 8.5)"/><path d="M471.59,661.47v-2.59l3.31-3.22c8-7.58,11.57-11.62,11.62-16.32,0-3.17-1.54-6.1-6.2-6.1a10.62,10.62,0,0,0-6.62,2.64l-1.34-3a13.65,13.65,0,0,1,8.83-3.17c6.72,0,9.55,4.61,9.55,9.07,0,5.76-4.18,10.42-10.75,16.75l-2.5,2.31V658h14v3.51Z" transform="translate(8.5 8.5)"/><path d="M494.82,667.37a69.89,69.89,0,0,0,2.88-11.47l4.7-.48a58.08,58.08,0,0,1-4.56,11.67Z" transform="translate(8.5 8.5)"/><path d="M524,633.24a15.23,15.23,0,0,0-3.17.19,12.69,12.69,0,0,0-10.85,11.09h.14a9.33,9.33,0,0,1,7.54-3.6c5.52,0,9.41,4,9.41,10.08,0,5.72-3.89,11-10.37,11-6.67,0-11-5.19-11-13.3,0-6.14,2.21-11,5.28-14.07a17,17,0,0,1,10-4.6,19.37,19.37,0,0,1,3.08-.24Zm-1.2,18c0-4.46-2.55-7.15-6.44-7.15a7,7,0,0,0-6.05,3.84,3.69,3.69,0,0,0-.48,1.87c.1,5.14,2.45,8.93,6.87,8.93C520.31,658.73,522.76,655.71,522.76,651.24Z" transform="translate(8.5 8.5)"/><path d="M529.38,667.37a69.89,69.89,0,0,0,2.88-11.47l4.7-.48a58.08,58.08,0,0,1-4.56,11.67Z" transform="translate(8.5 8.5)"/><path d="M549.87,634.2h-.09l-5.43,2.93-.81-3.22,6.81-3.64H554v31.2h-4.08Z" transform="translate(8.5 8.5)"/><path d="M583.14,633.24a15.23,15.23,0,0,0-3.17.19,12.69,12.69,0,0,0-10.85,11.09h.14a9.33,9.33,0,0,1,7.54-3.6c5.52,0,9.41,4,9.41,10.08,0,5.72-3.89,11-10.37,11-6.67,0-11-5.19-11-13.3,0-6.14,2.21-11,5.28-14.07a17,17,0,0,1,10-4.6,19.18,19.18,0,0,1,3.07-.24Zm-1.2,18c0-4.46-2.55-7.15-6.44-7.15a7,7,0,0,0-6,3.84,3.59,3.59,0,0,0-.48,1.87c.09,5.14,2.44,8.93,6.86,8.93C579.49,658.73,581.94,655.71,581.94,651.24Z" transform="translate(8.5 8.5)"/><path d="M588.56,667.37a69.89,69.89,0,0,0,2.88-11.47l4.7-.48a58.08,58.08,0,0,1-4.56,11.67Z" transform="translate(8.5 8.5)"/><path d="M599.89,661.47v-2.59l3.31-3.22c8-7.58,11.57-11.62,11.62-16.32,0-3.17-1.54-6.1-6.2-6.1a10.62,10.62,0,0,0-6.62,2.64l-1.35-3a13.68,13.68,0,0,1,8.84-3.17c6.72,0,9.55,4.61,9.55,9.07,0,5.76-4.18,10.42-10.75,16.75l-2.5,2.31V658h14v3.51Z" transform="translate(8.5 8.5)"/><path d="M624.51,661.47v-2.59l3.31-3.22c8-7.58,11.57-11.62,11.62-16.32,0-3.17-1.54-6.1-6.19-6.1a10.62,10.62,0,0,0-6.63,2.64l-1.34-3a13.65,13.65,0,0,1,8.83-3.17c6.72,0,9.55,4.61,9.55,9.07,0,5.76-4.17,10.42-10.75,16.75l-2.5,2.31V658h14v3.51Z" transform="translate(8.5 8.5)"/><path d="M647.74,667.37a68.89,68.89,0,0,0,2.88-11.47l4.7-.48a58.08,58.08,0,0,1-4.56,11.67Z" transform="translate(8.5 8.5)"/><path d="M668.24,634.2h-.1l-5.42,2.93-.82-3.22,6.82-3.64h3.6v31.2h-4.08Z" transform="translate(8.5 8.5)"/><path d="M683.31,653.55c0-3.94,2.35-6.72,6.19-8.35l0-.15c-3.45-1.63-4.94-4.32-4.94-7,0-4.94,4.17-8.3,9.65-8.3,6,0,9.07,3.79,9.07,7.68,0,2.64-1.3,5.47-5.14,7.3v.14c3.89,1.54,6.29,4.27,6.29,8.06,0,5.43-4.66,9.08-10.61,9.08C687.24,662,683.31,658.11,683.31,653.55Zm16.8-.19c0-3.8-2.64-5.62-6.87-6.82-3.64,1.06-5.61,3.46-5.61,6.43-.15,3.17,2.25,5.95,6.24,5.95C697.66,658.92,700.11,656.57,700.11,653.36Zm-11.62-15.61c0,3.13,2.35,4.81,6,5.77,2.69-.92,4.76-2.84,4.76-5.67,0-2.5-1.49-5.09-5.28-5.09C690.41,632.76,688.49,635.07,688.49,637.75Z" transform="translate(8.5 8.5)"/><path d="M706.92,667.37a68.89,68.89,0,0,0,2.88-11.47l4.71-.48A59.3,59.3,0,0,1,710,667.09Z" transform="translate(8.5 8.5)"/><path d="M718.25,661.47v-2.59l3.31-3.22c8-7.58,11.57-11.62,11.62-16.32,0-3.17-1.54-6.1-6.19-6.1a10.62,10.62,0,0,0-6.63,2.64l-1.34-3a13.65,13.65,0,0,1,8.83-3.17c6.72,0,9.55,4.61,9.55,9.07,0,5.76-4.17,10.42-10.75,16.75l-2.5,2.31V658h14v3.51Z" transform="translate(8.5 8.5)"/><path d="M763.13,630.27v2.78l-13.58,28.42h-4.37l13.53-27.6v-.1H743.45v-3.5Z" transform="translate(8.5 8.5)"/><path d="M775,628.54v38.31h-8.78v-2.64h5.52v-33h-5.52v-2.64Z" transform="translate(8.5 8.5)"/><path d="M459.73,724.45V686.19h8.79v2.64H463v33h5.52v2.64Z" transform="translate(8.5 8.5)"/><path d="M471.59,719.07v-2.59l3.31-3.22c8-7.58,11.57-11.62,11.62-16.32,0-3.17-1.54-6.1-6.2-6.1a10.62,10.62,0,0,0-6.62,2.64l-1.34-3a13.65,13.65,0,0,1,8.83-3.17c6.72,0,9.55,4.61,9.55,9.07,0,5.76-4.18,10.42-10.75,16.75l-2.5,2.31v.09h14v3.51Z" transform="translate(8.5 8.5)"/><path d="M494.82,725a69.89,69.89,0,0,0,2.88-11.47l4.7-.48a58.08,58.08,0,0,1-4.56,11.67Z" transform="translate(8.5 8.5)"/><path d="M524,690.84a15.23,15.23,0,0,0-3.17.19,12.69,12.69,0,0,0-10.85,11.09h.14a9.33,9.33,0,0,1,7.54-3.6c5.52,0,9.41,4,9.41,10.08,0,5.72-3.89,11-10.37,11-6.67,0-11-5.19-11-13.3,0-6.14,2.21-11,5.28-14.07a17,17,0,0,1,10-4.6,19.37,19.37,0,0,1,3.08-.24Zm-1.2,18c0-4.46-2.55-7.15-6.44-7.15a7,7,0,0,0-6.05,3.84,3.69,3.69,0,0,0-.48,1.87c.1,5.14,2.45,8.93,6.87,8.93C520.31,716.33,522.76,713.31,522.76,708.84Z" transform="translate(8.5 8.5)"/><path d="M529.38,725a69.89,69.89,0,0,0,2.88-11.47L537,713a58.08,58.08,0,0,1-4.56,11.67Z" transform="translate(8.5 8.5)"/><path d="M549.87,691.8h-.09l-5.43,2.93-.81-3.22,6.81-3.64H554v31.2h-4.08Z" transform="translate(8.5 8.5)"/><path d="M583.14,690.84A15.23,15.23,0,0,0,580,691a12.69,12.69,0,0,0-10.85,11.09h.14a9.33,9.33,0,0,1,7.54-3.6c5.52,0,9.41,4,9.41,10.08,0,5.72-3.89,11-10.37,11-6.67,0-11-5.19-11-13.3,0-6.14,2.21-11,5.28-14.07a17,17,0,0,1,10-4.6,19.18,19.18,0,0,1,3.07-.24Zm-1.2,18c0-4.46-2.55-7.15-6.44-7.15a7,7,0,0,0-6,3.84,3.59,3.59,0,0,0-.48,1.87c.09,5.14,2.44,8.93,6.86,8.93C579.49,716.33,581.94,713.31,581.94,708.84Z" transform="translate(8.5 8.5)"/><path d="M588.56,725a69.89,69.89,0,0,0,2.88-11.47l4.7-.48a58.08,58.08,0,0,1-4.56,11.67Z" transform="translate(8.5 8.5)"/><path d="M609.06,691.8H609l-5.43,2.93-.81-3.22,6.82-3.64h3.6v31.2h-4.08Z" transform="translate(8.5 8.5)"/><path d="M624.13,711.15c0-3.94,2.35-6.72,6.19-8.35l-.05-.15c-3.46-1.63-4.94-4.32-4.94-7,0-4.94,4.17-8.3,9.64-8.3,6,0,9.08,3.79,9.08,7.68,0,2.64-1.3,5.47-5.14,7.3v.14c3.89,1.54,6.29,4.27,6.29,8.06,0,5.43-4.66,9.08-10.61,9.08C628.06,719.6,624.13,715.71,624.13,711.15Zm16.8-.19c0-3.8-2.64-5.62-6.87-6.82-3.65,1.06-5.61,3.46-5.61,6.43-.15,3.17,2.25,5.95,6.24,5.95C638.48,716.52,640.93,714.17,640.93,711Zm-11.62-15.61c0,3.13,2.35,4.81,6,5.77,2.69-.92,4.75-2.84,4.75-5.67,0-2.5-1.48-5.09-5.28-5.09C631.23,690.36,629.31,692.67,629.31,695.35Z" transform="translate(8.5 8.5)"/><path d="M647.74,725a68.89,68.89,0,0,0,2.88-11.47l4.7-.48a58.08,58.08,0,0,1-4.56,11.67Z" transform="translate(8.5 8.5)"/><path d="M659.07,719.07v-2.59l3.31-3.22c8-7.58,11.57-11.62,11.62-16.32,0-3.17-1.54-6.1-6.2-6.1a10.62,10.62,0,0,0-6.62,2.64l-1.34-3a13.65,13.65,0,0,1,8.83-3.17c6.72,0,9.55,4.61,9.55,9.07,0,5.76-4.17,10.42-10.75,16.75l-2.5,2.31v.09h14v3.51Z" transform="translate(8.5 8.5)"/><path d="M683.69,719.07v-2.59l3.31-3.22c8-7.58,11.57-11.62,11.62-16.32,0-3.17-1.54-6.1-6.19-6.1a10.65,10.65,0,0,0-6.63,2.64l-1.34-3a13.65,13.65,0,0,1,8.83-3.17c6.72,0,9.55,4.61,9.55,9.07,0,5.76-4.17,10.42-10.75,16.75l-2.49,2.31v.09h14v3.51Z" transform="translate(8.5 8.5)"/><path d="M706.92,725a68.89,68.89,0,0,0,2.88-11.47l4.71-.48A59.3,59.3,0,0,1,710,724.69Z" transform="translate(8.5 8.5)"/><path d="M718.25,719.07v-2.59l3.31-3.22c8-7.58,11.57-11.62,11.62-16.32,0-3.17-1.54-6.1-6.19-6.1a10.62,10.62,0,0,0-6.63,2.64l-1.34-3a13.65,13.65,0,0,1,8.83-3.17c6.72,0,9.55,4.61,9.55,9.07,0,5.76-4.17,10.42-10.75,16.75l-2.5,2.31v.09h14v3.51Z" transform="translate(8.5 8.5)"/><path d="M763.13,687.87v2.78l-13.58,28.42h-4.37l13.53-27.6v-.1H743.45v-3.5Z" transform="translate(8.5 8.5)"/><path d="M775,686.14v38.31h-8.78v-2.64h5.52v-33h-5.52v-2.64Z" transform="translate(8.5 8.5)"/><path d="M1185.49,583.35c0-2.4,0-4.36-.19-6.28h3.75l.24,3.84h.09a8.54,8.54,0,0,1,7.68-4.37c3.22,0,8.21,1.92,8.21,9.89V600.3h-4.22V586.91c0-3.75-1.39-6.87-5.38-6.87a6,6,0,0,0-5.66,4.32,5.88,5.88,0,0,0-.29,2v14h-4.23Z" transform="translate(8.5 8.5)"/><path d="M1224.47,574.76V586h10.85v2.88h-10.85V600.3h-3.07V588.92h-10.85V586h10.85V574.76Z" transform="translate(8.5 8.5)"/><path d="M1249.91,567c-3.5,4.71-6.05,10.95-6.05,19.64a32.35,32.35,0,0,0,6.05,19.49h-3.31a31,31,0,0,1-6.29-19.49c0-9.46,3.26-15.6,6.29-19.64Z" transform="translate(8.5 8.5)"/><path d="M1254.37,583.35c0-2.4,0-4.36-.19-6.28h3.74l.25,3.84h.09a8.54,8.54,0,0,1,7.68-4.37c3.22,0,8.21,1.92,8.21,9.89V600.3h-4.22V586.91c0-3.75-1.4-6.87-5.38-6.87a6,6,0,0,0-5.67,4.32,6.16,6.16,0,0,0-.28,2v14h-4.23Z" transform="translate(8.5 8.5)"/><path d="M1290.8,585.75v3.12H1279v-3.12Z" transform="translate(8.5 8.5)"/><path d="M1303.57,573h-.09l-5.43,2.93-.81-3.21,6.81-3.65h3.6v31.2h-4.08Z" transform="translate(8.5 8.5)"/><path d="M1317.83,606.11a32.56,32.56,0,0,0,6.05-19.64,31.89,31.89,0,0,0-6.05-19.49h3.26c3.07,3.94,6.29,10.09,6.29,19.54a31.18,31.18,0,0,1-6.29,19.59Z" transform="translate(8.5 8.5)"/><path d="M1346.34,574.76V586h10.85v2.88h-10.85V600.3h-3.07V588.92h-10.85V586h10.85V574.76Z" transform="translate(8.5 8.5)"/><path d="M1371.78,567c-3.51,4.71-6,10.95-6,19.64a32.35,32.35,0,0,0,6,19.49h-3.31a31,31,0,0,1-6.29-19.49c0-9.46,3.26-15.6,6.29-19.64Z" transform="translate(8.5 8.5)"/><path d="M1376.24,583.35c0-2.4,0-4.36-.19-6.28h3.74l.24,3.84h.1a8.54,8.54,0,0,1,7.68-4.37c3.22,0,8.21,1.92,8.21,9.89V600.3h-4.23V586.91c0-3.75-1.39-6.87-5.37-6.87a6,6,0,0,0-5.67,4.32,6.16,6.16,0,0,0-.28,2v14h-4.23Z" transform="translate(8.5 8.5)"/><path d="M1412.67,585.75v3.12h-11.85v-3.12Z" transform="translate(8.5 8.5)"/><path d="M1416.27,600.3v-2.59l3.31-3.22c8-7.58,11.57-11.62,11.62-16.32,0-3.17-1.53-6.1-6.19-6.1a10.67,10.67,0,0,0-6.63,2.64l-1.34-3a13.65,13.65,0,0,1,8.83-3.17c6.72,0,9.56,4.61,9.56,9.07,0,5.76-4.18,10.42-10.76,16.76l-2.49,2.3v.09h14v3.51Z" transform="translate(8.5 8.5)"/><path d="M1439.7,606.11a32.56,32.56,0,0,0,6-19.64,31.89,31.89,0,0,0-6-19.49H1443c3.07,3.94,6.29,10.09,6.29,19.54a31.18,31.18,0,0,1-6.29,19.59Z" transform="translate(8.5 8.5)"/><path d="M1468.21,574.76V586h10.85v2.88h-10.85V600.3h-3.07V588.92h-10.85V586h10.85V574.76Z" transform="translate(8.5 8.5)"/><path d="M1483.47,597.8a2.84,2.84,0,0,1,2.88-3,3,3,0,0,1,0,6.05A2.83,2.83,0,0,1,1483.47,597.8Z" transform="translate(8.5 8.5)"/><path d="M1493.41,597.8a2.84,2.84,0,0,1,2.88-3,3,3,0,0,1,0,6.05A2.83,2.83,0,0,1,1493.41,597.8Z" transform="translate(8.5 8.5)"/><path d="M1516.69,574.76V586h10.85v2.88h-10.85V600.3h-3.07V588.92h-10.85V586h10.85V574.76Z" transform="translate(8.5 8.5)"/><path d="M1540.78,573h-.09l-5.43,2.93-.81-3.21,6.81-3.65h3.6v31.2h-4.08Z" transform="translate(8.5 8.5)"/><path d="M1207.81,641c0-2.4,0-4.36-.19-6.28h3.75l.24,3.84h.09a8.54,8.54,0,0,1,7.68-4.37c3.22,0,8.21,1.92,8.21,9.89V657.9h-4.22V644.51c0-3.75-1.39-6.87-5.38-6.87a6,6,0,0,0-5.66,4.32,5.88,5.88,0,0,0-.29,2v14h-4.23Z" transform="translate(8.5 8.5)"/><path d="M1233.45,655.4a2.84,2.84,0,0,1,2.88-3,3,3,0,0,1,0,6A2.83,2.83,0,0,1,1233.45,655.4Z" transform="translate(8.5 8.5)"/><path d="M1244.39,641c0-2.4-.05-4.36-.19-6.28h3.74l.24,3.84h.1a8.54,8.54,0,0,1,7.68-4.37c3.21,0,8.21,1.92,8.21,9.89V657.9h-4.23V644.51c0-3.75-1.39-6.87-5.37-6.87a6,6,0,0,0-5.67,4.32,6.15,6.15,0,0,0-.29,2v14h-4.22Z" transform="translate(8.5 8.5)"/><path d="M1283.37,632.36v11.28h10.84v2.88h-10.84V657.9h-3.08V646.52h-10.85v-2.88h10.85V632.36Z" transform="translate(8.5 8.5)"/><path d="M1307.46,630.63h-.09l-5.43,2.93-.82-3.21,6.82-3.65h3.6v31.2h-4.08Z" transform="translate(8.5 8.5)"/><path d="M1320.71,659.82,1334.1,625h3.26l-13.44,34.8Z" transform="translate(8.5 8.5)"/><path d="M1339.38,657.9v-2.59l3.31-3.22c8-7.58,11.57-11.62,11.62-16.32,0-3.17-1.54-6.1-6.2-6.1a10.62,10.62,0,0,0-6.62,2.64l-1.34-3a13.65,13.65,0,0,1,8.83-3.17c6.72,0,9.55,4.61,9.55,9.07,0,5.76-4.17,10.42-10.75,16.76l-2.5,2.3v.1h14v3.5Z" transform="translate(8.5 8.5)"/><path d="M1363.76,641.72v-2.88h24.77v2.88Zm0,9.41v-2.88h24.77v2.88Z" transform="translate(8.5 8.5)"/><path d="M1394,641c0-2.4,0-4.36-.19-6.28h3.74l.25,3.84h.09a8.54,8.54,0,0,1,7.68-4.37c3.22,0,8.21,1.92,8.21,9.89V657.9h-4.22V644.51c0-3.75-1.4-6.87-5.38-6.87a6,6,0,0,0-5.67,4.32,6.16,6.16,0,0,0-.28,2v14H1394Z" transform="translate(8.5 8.5)"/><path d="M1453.28,632.36v11.28h10.85v2.88h-10.85V657.9h-3.07V646.52h-10.85v-2.88h10.85V632.36Z" transform="translate(8.5 8.5)"/><path d="M1477.38,630.63h-.1l-5.42,2.93-.82-3.21,6.82-3.65h3.6v31.2h-4.08Z" transform="translate(8.5 8.5)"/><path d="M1490.62,659.82,1504,625h3.27l-13.44,34.8Z" transform="translate(8.5 8.5)"/><path d="M1509.29,657.9v-2.59l3.32-3.22c8-7.58,11.56-11.62,11.61-16.32,0-3.17-1.53-6.1-6.19-6.1a10.62,10.62,0,0,0-6.62,2.64l-1.35-3a13.65,13.65,0,0,1,8.83-3.17c6.73,0,9.56,4.61,9.56,9.07,0,5.76-4.18,10.42-10.76,16.76l-2.49,2.3v.1h14v3.5Z" transform="translate(8.5 8.5)"/><path d="M1345.67,699c0,11.13-6.77,17-15,17-8.54,0-14.54-6.63-14.54-16.42,0-10.27,6.38-17,15-17C1340,682.62,1345.67,689.39,1345.67,699Zm-25.11.52c0,6.92,3.75,13.11,10.32,13.11s10.37-6.1,10.37-13.44c0-6.43-3.36-13.16-10.32-13.16S1320.56,692.41,1320.56,699.51Z" transform="translate(8.5 8.5)"/><path d="M1360.12,682.18c-3.51,4.71-6,11-6,19.64a32.35,32.35,0,0,0,6,19.49h-3.32a31.07,31.07,0,0,1-6.29-19.49c0-9.46,3.27-15.6,6.29-19.64Z" transform="translate(8.5 8.5)"/><path d="M1364.58,698.55c0-2.4,0-4.36-.19-6.28h3.74l.24,3.84h.1a8.54,8.54,0,0,1,7.68-4.37c3.21,0,8.21,1.92,8.21,9.89V715.5h-4.23V702.11c0-3.75-1.39-6.87-5.37-6.87a6,6,0,0,0-5.67,4.32,6.15,6.15,0,0,0-.29,2v14h-4.22Z" transform="translate(8.5 8.5)"/><path d="M1409,721.31a32.56,32.56,0,0,0,6-19.64,31.89,31.89,0,0,0-6-19.49h3.26c3.07,3.94,6.29,10.09,6.29,19.54a31.18,31.18,0,0,1-6.29,19.59Z" transform="translate(8.5 8.5)"/><path d="M1385.74,698.79v-2.08l2.67-2.59c6.41-6.11,9.31-9.35,9.35-13.14,0-2.55-1.24-4.9-5-4.9a8.61,8.61,0,0,0-5.34,2.12l-1.08-2.39a11,11,0,0,1,7.11-2.55c5.41,0,7.69,3.71,7.69,7.3,0,4.63-3.36,8.38-8.65,13.48l-2,1.86V696h11.28v2.82Z" transform="translate(8.5 8.5)"/><path d="M1418.22,645.09V643l2.66-2.58c6.42-6.11,9.31-9.35,9.35-13.14,0-2.55-1.23-4.91-5-4.91a8.53,8.53,0,0,0-5.33,2.13l-1.09-2.4a11.09,11.09,0,0,1,7.11-2.55c5.41,0,7.69,3.71,7.69,7.31,0,4.63-3.36,8.38-8.65,13.48l-2,1.85v.08h11.28v2.82Z" transform="translate(8.5 8.5)"/><text class="cls-14" transform="translate(773.18 1131.29)">[7,3,5,8,2,9,4,15,6]</text><line class="cls-15" x1="206.68" y1="1015.46" x2="1749.59" y2="1015.46"/><line class="cls-15" x1="241.14" y1="1744.65" x2="1784.05" y2="1744.65"/><line class="cls-15" x1="238.9" y1="2919.12" x2="1781.8" y2="2919.12"/><text class="cls-16" transform="translate(663.47 1249.66)">1. En <tspan class="cls-17" x="100.78" y="0">k</tspan><tspan x="122.54" y="0">üçük s</tspan><tspan class="cls-18" x="243.38" y="0">a</tspan><tspan x="265.18" y="0">yıyı bul </tspan><tspan class="cls-19" x="411.92" y="0">v</tspan><tspan x="433.59" y="0">e 7 ile de</tspan><tspan class="cls-20" x="603.14" y="0">ğ</tspan><tspan x="628.58" y="0">işti</tspan><tspan class="cls-21" x="683.55" y="0">r</tspan><tspan x="696.15" y="0">.</tspan><tspan class="cls-22"><tspan x="183.7" y="55.2">[2,3,5,8,7,9,4,15,6]</tspan></tspan><tspan x="-299.06" y="110.4">2. 2</tspan><tspan class="cls-23" x="-232.6" y="110.4">’</tspan><tspan x="-226.62" y="110.4">den son</tspan><tspan class="cls-24" x="-73.35" y="110.4">r</tspan><tspan x="-58.54" y="110.4">a en </tspan><tspan class="cls-17" x="31.71" y="110.4">k</tspan><tspan x="53.47" y="110.4">üçük s</tspan><tspan class="cls-25" x="174.31" y="110.4">a</tspan><tspan x="196.12" y="110.4">yıyı bul </tspan><tspan class="cls-19" x="342.85" y="110.4">v</tspan><tspan x="364.52" y="110.4">e eğer 3</tspan><tspan class="cls-26" x="517.51" y="110.4">’</tspan><tspan class="cls-20" x="526.53" y="110.4">t</tspan><tspan x="541.48" y="110.4">en </tspan><tspan class="cls-27" x="599.81" y="110.4">k</tspan><tspan x="621.56" y="110.4">üçükse 3 ile de</tspan><tspan class="cls-28" x="902.21" y="110.4">ğ</tspan><tspan x="927.64" y="110.4">işti</tspan><tspan class="cls-21" x="982.61" y="110.4">r</tspan><tspan x="995.22" y="110.4">.</tspan><tspan class="cls-22"><tspan x="183.7" y="165.6">[2,3,5,8,7,9,4,15,6]</tspan></tspan><tspan x="-250.77" y="220.8">3. 3</tspan><tspan class="cls-23" x="-184.3" y="220.8">’</tspan><tspan x="-178.32" y="220.8">den son</tspan><tspan class="cls-24" x="-25.05" y="220.8">r</tspan><tspan x="-10.24" y="220.8">a en </tspan><tspan class="cls-17" x="80.01" y="220.8">k</tspan><tspan x="101.77" y="220.8">üçük s</tspan><tspan class="cls-25" x="222.61" y="220.8">a</tspan><tspan x="244.42" y="220.8">yıyı bul </tspan><tspan class="cls-19" x="391.15" y="220.8">v</tspan><tspan x="412.82" y="220.8">e 5</tspan><tspan class="cls-26" x="469.21" y="220.8">’</tspan><tspan class="cls-20" x="478.23" y="220.8">t</tspan><tspan x="493.18" y="220.8">en </tspan><tspan class="cls-27" x="551.51" y="220.8">k</tspan><tspan x="573.26" y="220.8">üçükse 5 ile de</tspan><tspan class="cls-28" x="853.91" y="220.8">ğ</tspan><tspan x="879.35" y="220.8">işti</tspan><tspan class="cls-21" x="934.31" y="220.8">r</tspan><tspan x="946.92" y="220.8">.</tspan><tspan class="cls-22"><tspan x="183.7" y="276">[2,3,4,8,7,9,5,15,6]</tspan></tspan><tspan x="-257.48" y="331.2">4. 4</tspan><tspan class="cls-23" x="-191.01" y="331.2">’</tspan><tspan x="-185.03" y="331.2">den son</tspan><tspan class="cls-24" x="-31.76" y="331.2">r</tspan><tspan x="-16.95" y="331.2">a en büyük s</tspan><tspan class="cls-25" x="221.37" y="331.2">a</tspan><tspan x="243.17" y="331.2">yıyı bul </tspan><tspan class="cls-19" x="389.91" y="331.2">v</tspan><tspan x="411.58" y="331.2">e 8</tspan><tspan class="cls-23" x="467.97" y="331.2">’</tspan><tspan x="473.95" y="331.2">den </tspan><tspan class="cls-27" x="558.22" y="331.2">k</tspan><tspan x="579.98" y="331.2">üçükse 8 ile de</tspan><tspan class="cls-28" x="860.62" y="331.2">ğ</tspan><tspan x="886.06" y="331.2">işti</tspan><tspan class="cls-21" x="941.03" y="331.2">r</tspan><tspan x="953.63" y="331.2">.</tspan><tspan class="cls-22"><tspan x="183.7" y="386.4">[2,3,4,5,7,9,8,15,6]</tspan></tspan></text><path d="M153.51,1800a80.09,80.09,0,0,1,13-1c6.68,0,11.57,1.52,14.67,4.25a13.57,13.57,0,0,1,4.58,10.7c0,4.62-1.39,8.26-4,10.92-3.57,3.71-9.4,5.61-16,5.61a23.71,23.71,0,0,1-5.43-.46v20.48h-6.75Zm6.75,24.65a23.17,23.17,0,0,0,5.59.53c8.15,0,13.12-3.87,13.12-10.92,0-6.75-4.89-10-12.34-10a28.6,28.6,0,0,0-6.37.53Z" transform="translate(8.5 8.5)"/><path d="M194.8,1800a71.28,71.28,0,0,1,13-1.07c7.22,0,11.88,1.29,15.14,4.17a12.61,12.61,0,0,1,4.12,9.71c0,6.75-4.35,11.23-9.86,13.05v.23c4,1.36,6.44,5,7.68,10.31,1.71,7.13,2.95,12.06,4,14h-7c-.85-1.44-2-5.84-3.49-12.21-1.55-7-4.35-9.71-10.48-9.93h-6.37v22.14H194.8Zm6.75,23.28h6.91c7.22,0,11.8-3.87,11.8-9.71,0-6.6-4.89-9.48-12-9.56a28.62,28.62,0,0,0-6.68.61Z" transform="translate(8.5 8.5)"/><path d="M281.51,1824.37c0,17.6-10.95,26.93-24.3,26.93-13.82,0-23.52-10.47-23.52-25.94,0-16.23,10.32-26.85,24.3-26.85C272.27,1798.51,281.51,1809.2,281.51,1824.37Zm-40.6.84c0,10.92,6.05,20.7,16.69,20.7s16.77-9.63,16.77-21.23c0-10.17-5.44-20.79-16.7-20.79S240.91,1814,240.91,1825.21Z" transform="translate(8.5 8.5)"/><path d="M301,1799.34h6.75v34.21c0,13.58-6.83,17.75-15.84,17.75a22.16,22.16,0,0,1-7.22-1.22l1-5.38a16.52,16.52,0,0,0,5.67,1c6.06,0,9.63-2.65,9.63-12.66Z" transform="translate(8.5 8.5)"/><path d="M346.09,1826.5H325.75v18.43h22.66v5.53H319v-51.12h28.26v5.54h-21.5V1821h20.34Z" transform="translate(8.5 8.5)"/><path d="M371.23,1850.46v-4.09l5.36-5.08c12.88-12,18.7-18.36,18.78-25.79,0-5-2.48-9.64-10-9.64a17.4,17.4,0,0,0-10.72,4.18l-2.17-4.71a22.46,22.46,0,0,1,14.29-5c10.86,0,15.44,7.28,15.44,14.33,0,9.1-6.75,16.46-17.39,26.47l-4,3.64v.16h22.67v5.53Z" transform="translate(8.5 8.5)"/><path class="cls-29" d="M712.68,1866.32v-69.17h15.45v4.78h-9.71v59.61h9.71v4.78Z" transform="translate(8.5 8.5)"/><path class="cls-29" d="M749.66,1807.31h-.17L740,1812.6l-1.43-5.81,12-6.6h6.33v56.41h-7.18Z" transform="translate(8.5 8.5)"/><path class="cls-29" d="M808.18,1805.57a25.72,25.72,0,0,0-5.57.35c-11.65,2-17.82,10.76-19.09,20h.26a16.22,16.22,0,0,1,13.25-6.5c9.71,0,16.55,7.2,16.55,18.22,0,10.33-6.84,19.87-18.23,19.87-11.74,0-19.43-9.37-19.43-24,0-11.1,3.89-19.87,9.29-25.42a29.55,29.55,0,0,1,17.57-8.33,34.42,34.42,0,0,1,5.4-.44Zm-2.11,32.54c0-8.07-4.48-12.93-11.32-12.93a12.2,12.2,0,0,0-10.63,7,6.56,6.56,0,0,0-.85,3.38c.17,9.28,4.31,16.14,12.08,16.14C801.76,1851.65,806.07,1846.18,806.07,1838.11Z" transform="translate(8.5 8.5)"/><path class="cls-29" d="M817.72,1867.27a127.69,127.69,0,0,0,5.07-20.74l8.28-.87c-2,7.38-5.66,17-8,21.09Z" transform="translate(8.5 8.5)"/><path class="cls-29" d="M837.65,1856.6v-4.69l5.83-5.81c14-13.71,20.35-21,20.43-29.51,0-5.73-2.7-11-10.89-11-5,0-9.12,2.6-11.65,4.77L839,1805a23.75,23.75,0,0,1,15.54-5.72c11.82,0,16.8,8.33,16.8,16.4,0,10.41-7.34,18.83-18.91,30.28l-4.39,4.17v.17h24.65v6.34Z" transform="translate(8.5 8.5)"/><path class="cls-29" d="M897.1,1807.31h-.17l-9.54,5.29-1.44-5.81,12-6.6h6.34v56.41H897.1Z" transform="translate(8.5 8.5)"/><path class="cls-29" d="M921.84,1867.27a127.69,127.69,0,0,0,5.07-20.74l8.27-.87c-1.94,7.38-5.65,17-8,21.09Z" transform="translate(8.5 8.5)"/><path class="cls-29" d="M957.9,1807.31h-.17l-9.54,5.29-1.44-5.81,12-6.6h6.33v56.41H957.9Z" transform="translate(8.5 8.5)"/><path class="cls-29" d="M1001.22,1807.31h-.17l-9.54,5.29-1.44-5.81,12-6.6h6.33v56.41h-7.17Z" transform="translate(8.5 8.5)"/><path class="cls-29" d="M1026,1867.27a127.69,127.69,0,0,0,5.07-20.74l8.27-.87c-1.94,7.38-5.66,17-8,21.09Z" transform="translate(8.5 8.5)"/><path class="cls-29" d="M1045.21,1842.28c0-7.12,4.14-12.15,10.9-15.1l-.09-.26c-6.08-3-8.7-7.81-8.7-12.67,0-8.94,7.35-15,17-15,10.63,0,16,6.85,16,13.88,0,4.77-2.28,9.89-9,13.19v.26c6.84,2.78,11.06,7.72,11.06,14.58,0,9.81-8.19,16.4-18.66,16.4C1052.14,1857.55,1045.21,1850.52,1045.21,1842.28Zm29.56-.35c0-6.85-4.65-10.15-12.08-12.32-6.42,1.91-9.88,6.25-9.88,11.63-.25,5.72,4,10.76,11,10.76C1070.46,1852,1074.77,1847.74,1074.77,1841.93Zm-20.44-28.2c0,5.64,4.14,8.68,10.47,10.41,4.73-1.65,8.36-5.12,8.36-10.24,0-4.51-2.62-9.2-9.29-9.2C1057.71,1804.7,1054.33,1808.87,1054.33,1813.73Z" transform="translate(8.5 8.5)"/><path class="cls-29" d="M1086.76,1867.27a126.68,126.68,0,0,0,5.06-20.74l8.28-.87c-1.94,7.38-5.66,17-8,21.09Z" transform="translate(8.5 8.5)"/><path class="cls-29" d="M1122.81,1807.31h-.17l-9.54,5.29-1.43-5.81,12-6.6H1130v56.41h-7.18Z" transform="translate(8.5 8.5)"/><path class="cls-29" d="M1150,1856.6v-4.69l5.82-5.81c14-13.71,20.35-21,20.44-29.51,0-5.73-2.71-11-10.9-11-5,0-9.12,2.6-11.65,4.77l-2.36-5.38a23.72,23.72,0,0,1,15.53-5.72c11.82,0,16.81,8.33,16.81,16.4,0,10.41-7.35,18.83-18.92,30.28l-4.39,4.17v.17h24.66v6.34Z" transform="translate(8.5 8.5)"/><path class="cls-29" d="M1190.88,1867.27a128.76,128.76,0,0,0,5.06-20.74l8.28-.87c-1.94,7.38-5.66,17-8,21.09Z" transform="translate(8.5 8.5)"/><path class="cls-29" d="M1210.8,1856.6v-4.69l5.83-5.81c14-13.71,20.35-21,20.43-29.51,0-5.73-2.7-11-10.89-11-5,0-9.12,2.6-11.65,4.77l-2.36-5.38a23.7,23.7,0,0,1,15.53-5.72c11.82,0,16.8,8.33,16.8,16.4,0,10.41-7.34,18.83-18.91,30.28l-4.39,4.17v.17h24.66v6.34Z" transform="translate(8.5 8.5)"/><path class="cls-29" d="M1254.12,1856.6v-4.69l5.83-5.81c14-13.71,20.35-21,20.43-29.51,0-5.73-2.7-11-10.89-11-5,0-9.12,2.6-11.65,4.77l-2.37-5.38a23.75,23.75,0,0,1,15.54-5.72c11.82,0,16.8,8.33,16.8,16.4,0,10.41-7.34,18.83-18.91,30.28l-4.39,4.17v.17h24.65v6.34Z" transform="translate(8.5 8.5)"/><path class="cls-29" d="M1310.7,1797.07v69.25h-15.45v-4.78H1305v-59.7h-9.71v-4.77Z" transform="translate(8.5 8.5)"/><path class="cls-30" d="M554.83,2097.83l-76.32,91.1" transform="translate(8.5 8.5)"/><path class="cls-30" d="M832.83,2105.08l-76.32,91.11" transform="translate(8.5 8.5)"/><path class="cls-30" d="M473.49,2258l69.48,91.1" transform="translate(8.5 8.5)"/><path class="cls-30" d="M1472.59,2097.83l69.49,91.1" transform="translate(8.5 8.5)"/><path class="cls-30" d="M887.1,2105.08l69.48,91.11" transform="translate(8.5 8.5)"/><path class="cls-30" d="M1141.34,2105.08,1065,2196.19" transform="translate(8.5 8.5)"/><path class="cls-30" d="M1195.61,2105.08l69.49,91.11" transform="translate(8.5 8.5)"/><path class="cls-30" d="M835.29,2363.57,759,2266.44" transform="translate(8.5 8.5)"/><path class="cls-30" d="M889.56,2363.57l69.49-97.13" transform="translate(8.5 8.5)"/><path class="cls-30" d="M1146.21,2363.57l-76.32-97.13" transform="translate(8.5 8.5)"/><path class="cls-30" d="M1200.48,2363.57l69.49-97.13" transform="translate(8.5 8.5)"/><path class="cls-30" d="M1304.64,2532.18l-76.32-97.13" transform="translate(8.5 8.5)"/><path class="cls-30" d="M1358.91,2532.18l69.49-97.13" transform="translate(8.5 8.5)"/><path class="cls-30" d="M673.38,2524.17,597.06,2427" transform="translate(8.5 8.5)"/><path class="cls-30" d="M727.65,2524.17,797.13,2427" transform="translate(8.5 8.5)"/><path class="cls-30" d="M936.82,2731,762.39,2602.82" transform="translate(8.5 8.5)"/><path class="cls-30" d="M1086,2731l158.13-122.23" transform="translate(8.5 8.5)"/><path class="cls-30" d="M1494.61,2363.57l69.48-97.13" transform="translate(8.5 8.5)"/><path class="cls-30" d="M713.24,1892.68,580.42,2030.57" transform="translate(8.5 8.5)"/><path class="cls-30" d="M712.11,1892.68l132.82,137.89" transform="translate(8.5 8.5)"/><path class="cls-30" d="M1009,3200.75l-132.82,137.9" transform="translate(8.5 8.5)"/><path class="cls-30" d="M1007.83,3200.75l132.82,137.9" transform="translate(8.5 8.5)"/><path class="cls-30" d="M845.81,3408.8,713,3546.7" transform="translate(8.5 8.5)"/><path class="cls-30" d="M688.39,3613.34,555.57,3751.23" transform="translate(8.5 8.5)"/><path class="cls-30" d="M844.69,3408.8l132.82,137.9" transform="translate(8.5 8.5)"/><path class="cls-30" d="M1186.05,3411.7l-132.82,137.9" transform="translate(8.5 8.5)"/><path class="cls-30" d="M1184.92,3411.7l132.82,137.9" transform="translate(8.5 8.5)"/><path class="cls-30" d="M1336.83,3605.32,1204,3743.22" transform="translate(8.5 8.5)"/><path class="cls-30" d="M1335.7,3605.32l132.82,137.9" transform="translate(8.5 8.5)"/><path class="cls-30" d="M1303.54,1892.68l-132.82,137.89" transform="translate(8.5 8.5)"/><path class="cls-30" d="M1302.41,1892.68l132.82,137.89" transform="translate(8.5 8.5)"/><text class="cls-31" transform="translate(552.28 2089.23)">16</text><text class="cls-31" transform="translate(454.71 2249.44)">16</text><text class="cls-31" transform="translate(729.3 2257.84)">21</text><text class="cls-31" transform="translate(1062.55 2257.84)">8</text><text class="cls-31" transform="translate(851.61 3403.11)">2</text><text class="cls-31" transform="translate(696.94 3605.17)">1</text><text class="cls-31" transform="translate(538.03 3807.23)">0</text><text class="cls-31" transform="translate(972.57 3605.17)">3</text><text class="cls-31" transform="translate(1049.22 3605.17)">5</text><text class="cls-31" transform="translate(1319.19 3605.17)">8</text><text class="cls-31" transform="translate(1199.07 3807.23)">6</text><text class="cls-31" transform="translate(1476.71 3807.23)">9</text><text class="cls-31" transform="translate(1162.93 3403.11)">7</text><text class="cls-32" transform="translate(918.14 3191.53)"><tspan class="cls-33">R</tspan><tspan x="34.69" y="0">oot:4</tspan></text><text class="cls-31" transform="translate(1130.98 2426.45)">8,</text><text class="cls-31" transform="translate(1253.27 2257.84)">21</text><text class="cls-31" transform="translate(1182.1 2426.45)">21</text><text class="cls-31" transform="translate(885.9 2426.45)">21</text><text class="cls-31" transform="translate(938.21 2257.84)">11</text><text class="cls-31" transform="translate(800.6 2426.45)">11,</text><text class="cls-31" transform="translate(552.28 2423.3)">16</text><text class="cls-31" transform="translate(804.5 2089.23)">21,11</text><text class="cls-31" transform="translate(629.14 2588.75)">11,16,21</text><text class="cls-34" transform="translate(861.13 2800.71)">8,11,12,16,21,22</text><text class="cls-31" transform="translate(1277.4 2600.15)">8,21,22</text><text class="cls-31" transform="translate(1130.29 2089.23)">8,12</text><text class="cls-31" transform="translate(1426.13 2089.23)">22</text><text class="cls-31" transform="translate(1541.01 2257.84)">22</text><text class="cls-31" transform="translate(1454.22 2426.45)">22</text><path d="M727.11,2812.35a51.34,51.34,0,0,1,9.7-.85c5.3,0,8.71.91,11.28,3a8.64,8.64,0,0,1,3.41,7.26c0,4-2.62,7.44-7,9v.12c3.9,1,8.47,4.21,8.47,10.31a11.11,11.11,0,0,1-3.47,8.23c-2.87,2.62-7.5,3.84-14.21,3.84a62.71,62.71,0,0,1-8.23-.49Zm5.31,16.83h4.81c5.61,0,8.9-2.93,8.9-6.89,0-4.82-3.65-6.71-9-6.71a22.06,22.06,0,0,0-4.69.37Zm0,19.69a28.73,28.73,0,0,0,4.45.24c5.48,0,10.54-2,10.54-8,0-5.6-4.81-7.92-10.6-7.92h-4.39Z" transform="translate(8.5 8.5)"/><path d="M766,2815.09a3.32,3.32,0,0,1-6.64,0,3.26,3.26,0,0,1,3.35-3.35A3.18,3.18,0,0,1,766,2815.09Zm-6,37.8v-29.51h5.36v29.51Z" transform="translate(8.5 8.5)"/><path d="M799.67,2823.38c-.13,2.14-.25,4.52-.25,8.11v17.13c0,6.77-1.34,10.92-4.21,13.48s-7,3.53-10.72,3.53c-3.54,0-7.44-.85-9.82-2.44l1.34-4.08a16.63,16.63,0,0,0,8.66,2.32c5.48,0,9.51-2.87,9.51-10.31v-3.29h-.12a10.55,10.55,0,0,1-9.39,4.94c-7.32,0-12.56-6.22-12.56-14.39,0-10,6.52-15.67,13.29-15.67,5.12,0,7.93,2.69,9.21,5.12h.12l.24-4.45ZM794.12,2835a7.45,7.45,0,0,0-.31-2.44,7.72,7.72,0,0,0-7.5-5.67c-5.12,0-8.77,4.33-8.77,11.16,0,5.79,2.92,10.6,8.71,10.6a7.84,7.84,0,0,0,7.44-5.48,9.21,9.21,0,0,0,.43-2.87Z" transform="translate(8.5 8.5)"/><path d="M856.55,2831.92c0,14.14-8.6,21.64-19.08,21.64-10.85,0-18.48-8.41-18.48-20.85,0-13,8.11-21.58,19.09-21.58C849.29,2811.13,856.55,2819.73,856.55,2831.92Zm-31.89.67c0,8.78,4.76,16.64,13.11,16.64s13.17-7.74,13.17-17.07c0-8.17-4.27-16.7-13.11-16.7S824.66,2823.57,824.66,2832.59Z" transform="translate(8.5 8.5)"/><path d="M876.37,2852.89V2811.8h5.79l13.17,20.79a116.65,116.65,0,0,1,7.37,13.35l.13-.06c-.49-5.49-.61-10.49-.61-16.89V2811.8h5v41.09h-5.37L888.8,2832a132.53,132.53,0,0,1-7.68-13.72l-.18.06c.3,5.19.43,10.13.43,16.95v17.56Z" transform="translate(8.5 8.5)"/><path d="M943,2837.89c0,10.92-7.56,15.67-14.7,15.67-8,0-14.14-5.85-14.14-15.18,0-9.87,6.46-15.67,14.63-15.67C937.27,2822.71,943,2828.87,943,2837.89Zm-23.41.31c0,6.46,3.71,11.34,9,11.34s9-4.82,9-11.46c0-5-2.5-11.34-8.84-11.34S919.6,2832.59,919.6,2838.2Z" transform="translate(8.5 8.5)"/><path d="M956.24,2814.91v8.47h7.68v4.09h-7.68v15.91c0,3.66,1,5.73,4,5.73a12.13,12.13,0,0,0,3.11-.36l.24,4a13,13,0,0,1-4.75.73,7.44,7.44,0,0,1-5.79-2.25c-1.53-1.59-2.07-4.21-2.07-7.69v-16.09h-4.58v-4.09H951v-7.07Z" transform="translate(8.5 8.5)"/><path d="M986.3,2852.89l-.43-3.72h-.18a11,11,0,0,1-9,4.39c-6,0-9-4.2-9-8.47,0-7.14,6.34-11,17.74-11v-.61c0-2.43-.67-6.82-6.71-6.82a14.73,14.73,0,0,0-7.68,2.19l-1.22-3.54a18.38,18.38,0,0,1,9.7-2.62c9,0,11.21,6.16,11.21,12.07v11a42.1,42.1,0,0,0,.49,7.07Zm-.8-15.06c-5.85-.12-12.49.92-12.49,6.65a4.75,4.75,0,0,0,5.06,5.12,7.35,7.35,0,0,0,7.13-4.94,5.7,5.7,0,0,0,.3-1.71Z" transform="translate(8.5 8.5)"/><path d="M1005.56,2814.91v8.47h7.68v4.09h-7.68v15.91c0,3.66,1,5.73,4,5.73a12.13,12.13,0,0,0,3.11-.36l.24,4a13.08,13.08,0,0,1-4.76.73,7.44,7.44,0,0,1-5.79-2.25c-1.52-1.59-2.07-4.21-2.07-7.69v-16.09h-4.57v-4.09h4.57v-7.07Z" transform="translate(8.5 8.5)"/><path d="M1025.26,2815.09a3.33,3.33,0,0,1-6.65,0,3.26,3.26,0,0,1,3.35-3.35A3.18,3.18,0,0,1,1025.26,2815.09Zm-6,37.8v-29.51h5.37v29.51Z" transform="translate(8.5 8.5)"/><path d="M1060.25,2837.89c0,10.92-7.56,15.67-14.69,15.67-8,0-14.15-5.85-14.15-15.18,0-9.87,6.47-15.67,14.64-15.67C1054.52,2822.71,1060.25,2828.87,1060.25,2837.89Zm-23.41.31c0,6.46,3.72,11.34,9,11.34s9-4.82,9-11.46c0-5-2.5-11.34-8.84-11.34S1036.84,2832.59,1036.84,2838.2Z" transform="translate(8.5 8.5)"/><path d="M1067,2831.37c0-3-.06-5.55-.24-8h4.75l.31,4.88h.12a10.86,10.86,0,0,1,9.75-5.55c4.09,0,10.43,2.44,10.43,12.56v17.62h-5.37v-17c0-4.75-1.76-8.72-6.82-8.72a7.63,7.63,0,0,0-7.2,5.49,7.85,7.85,0,0,0-.36,2.5v17.74H1067Z" transform="translate(8.5 8.5)"/><path d="M1099.58,2828.26a3.61,3.61,0,0,1,3.66-3.84c2.13,0,3.53,1.59,3.59,3.84a3.63,3.63,0,1,1-7.25,0Zm0,21.52a3.61,3.61,0,0,1,3.66-3.84c2.13,0,3.53,1.59,3.59,3.84a3.63,3.63,0,1,1-7.25,0Z" transform="translate(8.5 8.5)"/><path d="M1161.7,2831.92c0,14.14-8.59,21.64-19.08,21.64-10.85,0-18.47-8.41-18.47-20.85,0-13,8.11-21.58,19.08-21.58C1154.45,2811.13,1161.7,2819.73,1161.7,2831.92Zm-31.88.67c0,8.78,4.75,16.64,13.11,16.64s13.17-7.74,13.17-17.07c0-8.17-4.27-16.7-13.11-16.7S1129.82,2823.57,1129.82,2832.59Z" transform="translate(8.5 8.5)"/><path d="M1180.06,2810.58c-4.45,6-7.68,13.9-7.68,24.94a41.08,41.08,0,0,0,7.68,24.75h-4.21c-3.84-5.06-8-12.87-8-24.75s4.14-19.82,8-24.94Z" transform="translate(8.5 8.5)"/><path d="M1185.73,2831.37c0-3-.06-5.55-.24-8h4.75l.31,4.88h.12a10.85,10.85,0,0,1,9.75-5.55c4.09,0,10.43,2.44,10.43,12.56v17.62h-5.37v-17c0-4.75-1.77-8.72-6.83-8.72a7.62,7.62,0,0,0-7.19,5.49,7.83,7.83,0,0,0-.37,2.5v17.74h-5.36Z" transform="translate(8.5 8.5)"/><path d="M1219.57,2809.61h5.36v43.28h-5.36Z" transform="translate(8.5 8.5)"/><path d="M1260.66,2837.89c0,10.92-7.56,15.67-14.69,15.67-8,0-14.15-5.85-14.15-15.18,0-9.87,6.47-15.67,14.63-15.67C1254.93,2822.71,1260.66,2828.87,1260.66,2837.89Zm-23.41.31c0,6.46,3.72,11.34,9,11.34s9-4.82,9-11.46c0-5-2.5-11.34-8.84-11.34S1237.25,2832.59,1237.25,2838.2Z" transform="translate(8.5 8.5)"/><path d="M1292.85,2823.38c-.12,2.14-.24,4.52-.24,8.11v17.13c0,6.77-1.34,10.92-4.21,13.48s-7,3.53-10.73,3.53c-3.53,0-7.44-.85-9.81-2.44l1.34-4.08a16.63,16.63,0,0,0,8.66,2.32c5.48,0,9.51-2.87,9.51-10.31v-3.29h-.13a10.52,10.52,0,0,1-9.38,4.94c-7.32,0-12.56-6.22-12.56-14.39,0-10,6.52-15.67,13.29-15.67,5.12,0,7.92,2.69,9.2,5.12h.12l.25-4.45ZM1287.3,2835a7.83,7.83,0,0,0-7.8-8.11c-5.12,0-8.78,4.33-8.78,11.16,0,5.79,2.93,10.6,8.72,10.6a7.85,7.85,0,0,0,7.44-5.48,9.5,9.5,0,0,0,.42-2.87Z" transform="translate(8.5 8.5)"/><path d="M1324.13,2860.27c4.33-6,7.68-14,7.68-24.94s-3.29-18.71-7.68-24.75h4.15c3.9,5,8,12.8,8,24.81s-4.08,19.7-8,24.88Z" transform="translate(8.5 8.5)"/><path d="M1298.7,2844.73c0-2.21,0-4-.18-5.77h3.53l.22,3.52h.09a8.08,8.08,0,0,1,7.23-4c3,0,7.73,1.76,7.73,9.07v12.73h-4V2848c0-3.43-1.32-6.29-5.07-6.29a5.62,5.62,0,0,0-5.33,4,5.47,5.47,0,0,0-.27,1.81v12.81h-4Z" transform="translate(8.5 8.5)"/><path d="M160.55,2964a67.9,67.9,0,0,1,11.35-.89c5.85,0,10.13,1.36,12.85,3.81a12.32,12.32,0,0,1,4,9.59c0,4.15-1.22,7.41-3.53,9.79-3.13,3.33-8.23,5-14,5a20.35,20.35,0,0,1-4.76-.41v18.36h-5.91Zm5.91,22.1a19.91,19.91,0,0,0,4.9.47c7.14,0,11.49-3.47,11.49-9.79,0-6-4.29-9-10.81-9a25,25,0,0,0-5.58.47Z" transform="translate(8.5 8.5)"/><path d="M196.72,2964a60.91,60.91,0,0,1,11.36-1c6.32,0,10.4,1.16,13.26,3.74a11.43,11.43,0,0,1,3.6,8.71c0,6.05-3.81,10.06-8.64,11.69v.2c3.54,1.23,5.65,4.49,6.74,9.25,1.49,6.39,2.58,10.81,3.53,12.58h-6.12c-.75-1.29-1.77-5.23-3.06-10.95-1.36-6.32-3.81-8.7-9.18-8.9h-5.57v19.85h-5.92Zm5.92,20.87h6.05c6.32,0,10.33-3.47,10.33-8.7,0-5.92-4.28-8.5-10.54-8.57a24.46,24.46,0,0,0-5.84.54Z" transform="translate(8.5 8.5)"/><path d="M272.67,2985.85c0,15.78-9.58,24.14-21.28,24.14-12.1,0-20.6-9.38-20.6-23.25,0-14.56,9-24.07,21.28-24.07C264.58,2962.67,272.67,2972.25,272.67,2985.85Zm-35.56.75c0,9.79,5.31,18.56,14.62,18.56s14.69-8.63,14.69-19c0-9.11-4.76-18.63-14.62-18.63S237.11,2976.54,237.11,2986.6Z" transform="translate(8.5 8.5)"/><path d="M289.74,2963.41h5.92v30.67c0,12.17-6,15.91-13.87,15.91a19.24,19.24,0,0,1-6.33-1.09l.89-4.83a14,14,0,0,0,5,.89c5.31,0,8.43-2.38,8.43-11.36Z" transform="translate(8.5 8.5)"/><path d="M329.25,2987.75H311.44v16.53h19.85v5H305.52v-45.83h24.75v5H311.44v14.48h17.81Z" transform="translate(8.5 8.5)"/><path d="M352.71,3002.37a20,20,0,0,0,9.79,2.79c7.69,0,10.07-4.89,10-8.57-.07-6.18-5.65-8.84-11.43-8.84h-3.33v-4.48h3.33c4.36,0,9.86-2.25,9.86-7.48,0-3.54-2.24-6.67-7.75-6.67a16.27,16.27,0,0,0-8.84,2.93l-1.56-4.35a21,21,0,0,1,11.56-3.4c8.7,0,12.64,5.16,12.64,10.54,0,4.55-2.72,8.43-8.15,10.4v.14c5.43,1.08,9.85,5.16,9.85,11.35,0,7.07-5.5,13.26-16.11,13.26a22.54,22.54,0,0,1-11.49-3Z" transform="translate(8.5 8.5)"/><path d="M386.64,2981.77a4,4,0,0,1,4.08-4.28c2.38,0,3.94,1.77,4,4.28a4,4,0,1,1-8.09,0Zm0,24a4,4,0,0,1,4.08-4.28c2.38,0,3.94,1.77,4,4.28a4,4,0,1,1-8.09,0Z" transform="translate(8.5 8.5)"/><path d="M416.76,2964a56.87,56.87,0,0,1,10.82-1c5.91,0,9.72,1,12.57,3.34a9.59,9.59,0,0,1,3.81,8.09c0,4.42-2.92,8.29-7.75,10.06v.14c4.35,1.08,9.45,4.69,9.45,11.49a12.37,12.37,0,0,1-3.87,9.18c-3.2,2.92-8.37,4.28-15.85,4.28a69.76,69.76,0,0,1-9.18-.54Zm5.92,18.76h5.37c6.26,0,9.93-3.26,9.93-7.68,0-5.37-4.08-7.48-10.06-7.48a24.93,24.93,0,0,0-5.24.41Zm0,22a30.76,30.76,0,0,0,5,.28c6.12,0,11.77-2.25,11.77-8.91,0-6.26-5.38-8.84-11.83-8.84h-4.9Z" transform="translate(8.5 8.5)"/><path d="M460.08,2967.08a3.71,3.71,0,0,1-7.41,0,3.64,3.64,0,0,1,3.74-3.73A3.55,3.55,0,0,1,460.08,2967.08Zm-6.66,42.16v-32.91h6v32.91Z" transform="translate(8.5 8.5)"/><path d="M469.33,2985.24c0-3.4-.07-6.19-.27-8.91h5.3l.34,5.44h.13a12.11,12.11,0,0,1,10.88-6.19c4.56,0,11.63,2.72,11.63,14v19.65h-6v-19c0-5.3-2-9.72-7.62-9.72a8.5,8.5,0,0,0-8,6.12,8.61,8.61,0,0,0-.41,2.78v19.79h-6Z" transform="translate(8.5 8.5)"/><path d="M525.29,3009.24l-.48-4.15h-.2a12.25,12.25,0,0,1-10.06,4.9c-6.67,0-10.07-4.69-10.07-9.45,0-8,7.07-12.31,19.79-12.24v-.68c0-2.72-.75-7.62-7.48-7.62a16.46,16.46,0,0,0-8.57,2.45l-1.36-3.94a20.42,20.42,0,0,1,10.81-2.93c10.07,0,12.51,6.87,12.51,13.47v12.3a46.06,46.06,0,0,0,.55,7.89Zm-.89-16.79c-6.52-.14-13.93,1-13.93,7.41a5.29,5.29,0,0,0,5.64,5.71,8.2,8.2,0,0,0,8-5.51,6.33,6.33,0,0,0,.33-1.9Z" transform="translate(8.5 8.5)"/><path d="M539.84,2986.6c0-3.88-.07-7.21-.27-10.27h5.24l.2,6.46h.27c1.5-4.42,5.1-7.21,9.11-7.21a6.28,6.28,0,0,1,1.7.21v5.64a9.33,9.33,0,0,0-2-.2c-4.21,0-7.2,3.19-8,7.68a16.5,16.5,0,0,0-.27,2.79v17.54h-5.92Z" transform="translate(8.5 8.5)"/><path d="M566,2976.33l7.21,19.45c.75,2.17,1.56,4.76,2.11,6.73h.13c.62-2,1.3-4.49,2.11-6.87l6.53-19.31h6.32l-9,23.46c-4.29,11.29-7.21,17.07-11.29,20.6a16.15,16.15,0,0,1-7.34,3.88l-1.5-5a15.85,15.85,0,0,0,5.24-2.93,18.13,18.13,0,0,0,5-6.66,4.29,4.29,0,0,0,.47-1.43,5.19,5.19,0,0,0-.4-1.56l-12.17-30.33Z" transform="translate(8.5 8.5)"/><path d="M609.61,3002a20.89,20.89,0,0,0,10.61,3c6,0,9.58-3.2,9.58-7.82,0-4.29-2.45-6.73-8.63-9.11-7.48-2.66-12.11-6.53-12.11-13,0-7.14,5.92-12.44,14.83-12.44a20.78,20.78,0,0,1,10.13,2.24l-1.63,4.83a18.23,18.23,0,0,0-8.71-2.18c-6.25,0-8.63,3.74-8.63,6.87,0,4.28,2.79,6.39,9.11,8.84,7.75,3,11.69,6.73,11.69,13.46,0,7.07-5.23,13.19-16,13.19-4.42,0-9.25-1.29-11.7-2.92Z" transform="translate(8.5 8.5)"/><path d="M647.48,2993.87c.14,8.1,5.31,11.43,11.29,11.43a21.66,21.66,0,0,0,9.11-1.7l1,4.28a26.69,26.69,0,0,1-10.95,2c-10.13,0-16.18-6.66-16.18-16.59s5.85-17.75,15.44-17.75c10.74,0,13.6,9.46,13.6,15.51a21.82,21.82,0,0,1-.21,2.78Zm17.55-4.28c.06-3.81-1.57-9.72-8.3-9.72-6.05,0-8.7,5.57-9.18,9.72Z" transform="translate(8.5 8.5)"/><path d="M696.44,3009.24l-.47-4.15h-.21a12.23,12.23,0,0,1-10.06,4.9c-6.66,0-10.06-4.69-10.06-9.45,0-8,7.07-12.31,19.78-12.24v-.68c0-2.72-.75-7.62-7.48-7.62a16.42,16.42,0,0,0-8.56,2.45l-1.36-3.94a20.37,20.37,0,0,1,10.81-2.93c10.06,0,12.51,6.87,12.51,13.47v12.3a46.13,46.13,0,0,0,.54,7.89Zm-.88-16.79c-6.53-.14-13.94,1-13.94,7.41a5.29,5.29,0,0,0,5.64,5.71,8.19,8.19,0,0,0,8-5.51,6.34,6.34,0,0,0,.34-1.9Z" transform="translate(8.5 8.5)"/><path d="M711,2986.6c0-3.88-.07-7.21-.28-10.27H716l.2,6.46h.27c1.5-4.42,5.1-7.21,9.12-7.21a6.33,6.33,0,0,1,1.7.21v5.64a9.46,9.46,0,0,0-2-.2c-4.22,0-7.21,3.19-8,7.68a17.6,17.6,0,0,0-.27,2.79v17.54H711Z" transform="translate(8.5 8.5)"/><path d="M756,3008a22.12,22.12,0,0,1-9.45,1.9c-9.93,0-16.39-6.73-16.39-16.79s6.94-17.48,17.68-17.48a20.14,20.14,0,0,1,8.3,1.7l-1.36,4.63a13.86,13.86,0,0,0-6.94-1.57c-7.55,0-11.63,5.58-11.63,12.44,0,7.62,4.9,12.31,11.43,12.31a17,17,0,0,0,7.34-1.63Z" transform="translate(8.5 8.5)"/><path d="M763,2961h6v20.53h.14a11.06,11.06,0,0,1,4.28-4.22,12.3,12.3,0,0,1,6.12-1.7c4.42,0,11.49,2.72,11.49,14.08v19.58h-6v-18.9c0-5.3-2-9.79-7.62-9.79a8.59,8.59,0,0,0-8,6,7.26,7.26,0,0,0-.41,2.86v19.85h-6Z" transform="translate(8.5 8.5)"/><path d="M821.29,2968.45H807.35v-5h33.93v5h-14v40.79h-6Z" transform="translate(8.5 8.5)"/><path d="M843.12,2986.6c0-3.88-.07-7.21-.27-10.27h5.23l.21,6.46h.27c1.49-4.42,5.1-7.21,9.11-7.21a6.28,6.28,0,0,1,1.7.21v5.64a9.33,9.33,0,0,0-2-.2c-4.22,0-7.21,3.19-8,7.68a16.44,16.44,0,0,0-.28,2.79v17.54h-5.91Z" transform="translate(8.5 8.5)"/><path d="M868,2993.87c.13,8.1,5.3,11.43,11.28,11.43a21.63,21.63,0,0,0,9.11-1.7l1,4.28a26.64,26.64,0,0,1-10.94,2c-10.13,0-16.18-6.66-16.18-16.59s5.84-17.75,15.43-17.75c10.74,0,13.6,9.46,13.6,15.51a21.82,21.82,0,0,1-.21,2.78Zm17.54-4.28c.07-3.81-1.57-9.72-8.3-9.72-6,0-8.7,5.57-9.18,9.72Z" transform="translate(8.5 8.5)"/><path d="M902.07,2993.87c.14,8.1,5.31,11.43,11.29,11.43a21.66,21.66,0,0,0,9.11-1.7l1,4.28a26.68,26.68,0,0,1-10.94,2c-10.14,0-16.19-6.66-16.19-16.59s5.85-17.75,15.44-17.75c10.74,0,13.6,9.46,13.6,15.51a21.82,21.82,0,0,1-.21,2.78Zm17.55-4.28c.06-3.81-1.57-9.72-8.3-9.72-6.05,0-8.7,5.57-9.18,9.72Z" transform="translate(8.5 8.5)"/><text class="cls-35" transform="translate(762.03 3099.06)">[7,5,1,8,3,6,0,9,4,2]</text></svg>